<?xml version="1.0" standalone="no"?>
<!DOCTYPE svg PUBLIC "-//W3C//DTD SVG 1.1//EN" "http://www.w3.org/Graphics/SVG/1.1/DTD/svg11.dtd" >
<!--
2013-9-30: Created.
-->
<svg>
<metadata>
Created by iconfont
</metadata>
<defs>

<font id="iconfont" horiz-adv-x="1024" >
  <font-face
    font-family="iconfont"
    font-weight="500"
    font-stretch="normal"
    units-per-em="1024"
    ascent="896"
    descent="-128"
  />
    <missing-glyph />
    
    <glyph glyph-name="xiugai" unicode="&#59147;" d="M793.5 834h-563c-50.2 0-91-40.7-91-91v-718c0-50.2 40.7-91 91-91h563c50.2 0 91 40.7 91 91V743c0 50.3-40.7 91-91 91zM472.9 595.6l69.3-40-140-242.5-69.3 40 140 242.5z m49.7-434C486.7 99.4 407.2 78.1 345 114c-62.2 35.9-83.5 115.4-47.6 177.6l10 17.3 225.2-130-10-17.3z m35.5 61.5l-69.3 40 140 242.5 69.3-40-140-242.5z m165.5 286.6l-225.2 130 40 69.3 225.2-130-40-69.3z"  horiz-adv-x="1024" />

    
    <glyph glyph-name="bianji" unicode="&#59148;" d="M765.2 835.4h-505c-66.3 0-120-53.7-120-120v-660c0-66.3 53.7-120 120-120h505c66.3 0 120 53.7 120 120v660c0 66.3-53.8 120-120 120z m-175-116.1c16.6 28.7 53.3 38.5 82 22 28.7-16.6 38.5-53.3 22-82l-0.8-1.3-103.9 60 0.7 1.3z m-10.3-18.2l103.9-60-225-389.7-103.9 60 225 389.7zM343.2 289.9l103.9-60-123.9-80 20 140z m429.5-268.3h-520v120h520v-120z"  horiz-adv-x="1024" />

    
    <glyph glyph-name="baocun" unicode="&#59149;" d="M563 834h140v-288H563zM803 834h-20v-368H483V834H213c-44.2 0-80-35.8-80-80v-740c0-44.2 35.8-80 80-80h590c44.2 0 80 35.8 80 80V754c0 44.2-35.8 80-80 80z m-20-728H233v80h550v-80z m0 161H233v80h550v-80z"  horiz-adv-x="1024" />

    
    <glyph glyph-name="daochu" unicode="&#59150;" d="M512-65.5c248.5 0 450 201.5 450 450s-201.5 450-450 450S62 633 62 384.5s201.5-450 450-450z m-70 423.9v348h140v-348h167.1L512 62.5 274.9 358.4H442z"  horiz-adv-x="1024" />

    
    <glyph glyph-name="ceshibiaozhunguanli" unicode="&#59151;" d="M513 714c-55.2 0-100-44.8-100-100v-680h200V614c0 55.2-44.8 100-100 100zM168 594c-55.2 0-100-44.8-100-100v-560h200V494c0 55.2-44.8 100-100 100zM858 834c-55.2 0-100-44.8-100-100v-800h200V734c0 55.2-44.8 100-100 100z m80-835H808v60h130v-60z m0 92.5h-65v30h65v-30z m0 66h-65v30h65v-30z m0 66h-65v30h65v-30z m0 66.7H808v60h130v-60z m0 93.3h-65v30h65v-30z m0 66h-65v30h65v-30z m0 66h-65v30h65v-30z m0 66H808v60h130v-60z"  horiz-adv-x="1024" />

    
    <glyph glyph-name="daorumoban" unicode="&#59152;" d="M512 834.5c-248.5 0-450-201.5-450-450s201.5-450 450-450 450 201.5 450 450-201.5 450-450 450z m70-423.9v-348H442v348H274.9L512 706.5l237.1-295.9H582z"  horiz-adv-x="1024" />

    
    <glyph glyph-name="chakanxiangqing" unicode="&#59153;" d="M469 347m-90 0a90 90 0 1 1 180 0 90 90 0 1 1-180 0ZM591.1 162.4c-36-25.6-79-39.4-124.1-39.4-57.4 0-111.4 22.4-152 63-40.6 40.6-63 94.6-63 152s22.4 111.4 63 152c40.6 40.6 94.6 63 152 63s111.4-22.4 152-63c40.6-40.6 63-94.6 63-152 0-35.6-8.6-69.9-24.8-100.5L887 25V785c0 27.6-22.4 50-50 50H187c-27.6 0-50-22.4-50-50v-800c0-27.6 22.4-50 50-50h650L591.1 162.4zM772 554c0-22.1-17.9-40-40-40h-33c-22.1 0-40 17.9-40 40s17.9 40 40 40h33c22.1 0 40-17.9 40-40zM252 694c0 22.1 17.9 40 40 40h440c22.1 0 40-17.9 40-40s-17.9-40-40-40H292c-22.1 0-40 17.9-40 40z"  horiz-adv-x="1024" />

    
    <glyph glyph-name="diqu" unicode="&#59154;" d="M512 460m-150 0a150 150 0 1 1 300 0 150 150 0 1 1-300 0ZM512 831c-198.3 0-359-160.7-359-359s158.5-340.5 359-541c204 201 359 342.7 359 541S710.3 831 512 831z m169.7-540.7C636.4 245 576.1 220 512 220s-124.4 25-169.7 70.3C297 335.6 272 395.9 272 460s25 124.4 70.3 169.7C387.6 675 447.9 700 512 700s124.4-25 169.7-70.3C727 584.4 752 524.1 752 460s-25-124.4-70.3-169.7z"  horiz-adv-x="1024" />

    
    <glyph glyph-name="diquguanli" unicode="&#59155;" d="M511.8 834c-197.2 0-357-159.8-357-357s100-349 357-543c258 192 357 345.8 357 543S708.9 834 511.8 834z m0-557c-118.5 0-214.5 96-214.5 214.5S393.3 706 511.8 706s214.5-96 214.5-214.5S630.2 277 511.8 277z"  horiz-adv-x="1024" />

    
    <glyph glyph-name="fenbaoshangguanli" unicode="&#59156;" d="M184.3 181c0 137.6 79.4 256.6 194.8 313.8 31.3-53.1 89.1-88.8 155.2-88.8s123.9 35.7 155.2 88.8C805 437.6 884.3 318.6 884.3 181c0-33.1-4.6-65.1-13.2-95.4C941.6 165 984.3 269.5 984.3 384c0 248.5-201.5 450-450 450s-450-201.5-450-450c0-114.5 42.8-219 113.2-298.4-8.6 30.3-13.2 62.3-13.2 95.4z m350 555c82.8 0 150-67.2 150-150s-67.2-150-150-150-150 67.2-150 150 67.2 150 150 150zM537 358c-14.6 0-28.5 1.7-41.1 4.8L469.1 336l67.9-67.9 67.9 67.9-26.8 26.8c-12.6-3.1-26.5-4.8-41.1-4.8zM623.2 39L537-37.2 450.8 39l59.6 256.4 51.6-0.2z"  horiz-adv-x="1024" />

    
    <glyph glyph-name="jihuaguanli" unicode="&#59157;" d="M832 833H192c-27.6 0-50-22.4-50-50v-800c0-27.6 22.4-50 50-50h640c27.6 0 50 22.4 50 50V783c0 27.6-22.4 50-50 50zM222 703c0 27.6 22.4 50 50 50s50-22.4 50-50-22.4-50-50-50-50 22.4-50 50z m0-181c0 27.6 22.4 50 50 50s50-22.4 50-50-22.4-50-50-50-50 22.4-50 50z m564.5-188.2L486.6 33.9c-1.6-2.2-3.3-4.3-5.3-6.2-9.9-9.9-22.9-14.8-35.8-14.6-13-0.1-25.9 4.7-35.8 14.6-2 2-3.7 4.1-5.3 6.2L236.7 201.6c-19.5 19.5-19.5 51.2 0 70.7s51.2 19.5 70.7 0l138.1-138.1 270.3 270.3c19.5 19.5 51.2 19.5 70.7 0s19.5-51.2 0-70.7zM802 522c0-27.6-22.4-50-50-50H413c-27.6 0-50 22.4-50 50s22.4 50 50 50h339c27.6 0 50-22.4 50-50z m0 181c0-27.6-22.4-50-50-50H413c-27.6 0-50 22.4-50 50s22.4 50 50 50h339c27.6 0 50-22.4 50-50z"  horiz-adv-x="1024" />

    
    <glyph glyph-name="qiyong" unicode="&#59158;" d="M512 834.3c-248.5 0-450-201.5-450-450s201.5-450 450-450 450 201.5 450 450-201.5 450-450 450zM372 126.1V642.4l360-258.1-360-258.2z"  horiz-adv-x="1024" />

    
    <glyph glyph-name="fuwuqiguanli" unicode="&#59159;" d="M912.4 820H111.6C86.4 820 66 799.6 66 774.4v-108.7c0-25.2 20.4-45.6 45.6-45.6h800.7c25.2 0 45.6 20.4 45.6 45.6V774.4C958 799.6 937.6 820 912.4 820zM648 678c-23.2 0-42 18.8-42 42s18.8 42 42 42 42-18.8 42-42-18.8-42-42-42z m114 0c-23.2 0-42 18.8-42 42s18.8 42 42 42 42-18.8 42-42-18.8-42-42-42z m114 0c-23.2 0-42 18.8-42 42s18.8 42 42 42 42-18.8 42-42-18.8-42-42-42zM912.4 499.5H111.6c-25.2 0-45.6-20.4-45.6-45.6v-108.7c0-25.2 20.4-45.6 45.6-45.6h800.7c25.2 0 45.6 20.4 45.6 45.6V453.9c0.1 25.2-20.3 45.6-45.5 45.6zM648 357.5c-23.2 0-42 18.8-42 42s18.8 42 42 42 42-18.8 42-42-18.8-42-42-42z m114 0c-23.2 0-42 18.8-42 42s18.8 42 42 42 42-18.8 42-42-18.8-42-42-42z m114 0c-23.2 0-42 18.8-42 42s18.8 42 42 42 42-18.8 42-42-18.8-42-42-42zM912.4 179H111.6C86.4 179 66 158.6 66 133.4v-108.7c0-25.2 20.4-45.6 45.6-45.6h800.7c25.2 0 45.6 20.4 45.6 45.6V133.4c0.1 25.2-20.3 45.6-45.5 45.6zM648 37c-23.2 0-42 18.8-42 42s18.8 42 42 42 42-18.8 42-42-18.8-42-42-42z m114 0c-23.2 0-42 18.8-42 42s18.8 42 42 42 42-18.8 42-42-18.8-42-42-42z m114 0c-23.2 0-42 18.8-42 42s18.8 42 42 42 42-18.8 42-42-18.8-42-42-42z"  horiz-adv-x="1024" />

    
    <glyph glyph-name="rili" unicode="&#59160;" d="M912 702H744v73c0 33.1-26.9 60-60 60s-60-26.9-60-60v-73H400v73c0 33.1-26.9 60-60 60s-60-26.9-60-60v-73H112c-27.6 0-50-22.4-50-50v-667c0-27.6 22.4-50 50-50h800c27.6 0 50 22.4 50 50V652c0 27.6-22.4 50-50 50zM322 172H162V332h160v-160z m0 270H162V602h160v-160z m270-270H432V332h160v-160z m0 270H432V602h160v-160z m270 0H702V602h160v-160z"  horiz-adv-x="1024" />

    
    <glyph glyph-name="shezhi" unicode="&#59161;" d="M960.3 324.5v120l-170.6 14.2c-6.8 25-16.9 48.6-29.8 70.4l111 131.2-84.9 84.8-132.2-111.8c-21.5 12.2-44.7 21.7-69.1 28L570.3 834.5h-120l-14.5-174.3c-23.9-6.6-46.5-16.1-67.4-28.3L234.5 745.1l-84.9-84.9 113.3-134c-12-20.9-21.5-43.5-28-67.3L60.3 444.5v-120L234.1 310c6.3-24.2 15.8-47.2 27.8-68.5L149.6 108.7l84.9-84.9 131.7 111.5c21.6-12.8 45-22.8 69.8-29.6l14.3-171.2h120l14.2 170.1c25.4 6.6 49.4 16.5 71.5 29.3l130-110 84.9 84.9-110 129.9c12.9 22.2 22.9 46.3 29.6 71.7l169.8 14.1z m-300 60c0-82.8-67.2-150-150-150s-150 67.2-150 150 67.2 150 150 150 150-67.2 150-150z"  horiz-adv-x="1024" />

    
    <glyph glyph-name="tianjia" unicode="&#59162;" d="M464.3 632.5m-200 0a200 200 0 1 1 400 0 200 200 0 1 1-400 0ZM1004 69H724c-22.1 0-40 17.9-40 40s17.9 40 40 40h280c22.1 0 40-17.9 40-40s-17.9-40-40-40zM824-34.8V252.8c0 20 16.2 36.2 36.2 36.2h7.6c20 0 36.2-16.2 36.2-36.2v-287.6c0-20-16.2-36.2-36.2-36.2h-7.6c-20 0-36.2 16.2-36.2 36.2zM644 109c0 44.2 35.8 80 80 80h60v60c0 23 9.7 43.8 25.3 58.4-42 71.5-105.7 128.9-182 163-41.7-41.9-99.3-67.8-163.1-67.8s-121.4 25.9-163.1 67.8C162.7 408.4 65.9 270.1 64.3 109H644z"  horiz-adv-x="1044" />

    
    <glyph glyph-name="tianjiadiqu" unicode="&#59163;" d="M511.5 834c-197.2 0-357-159.8-357-357s100-349 357-543c258 192 357 345.8 357 543S708.6 834 511.5 834z m0-557C393 277 297 373 297 491.5S393 706 511.5 706 726 610 726 491.5 629.9 277 511.5 277zM545.3 634.6h-69.4v-108.7H367.2v-69.5h108.7v-108.2h69.4V456.4h108.2v69.5H545.3z"  horiz-adv-x="1024" />

    
    <glyph glyph-name="rizhiguanli" unicode="&#59164;" d="M372 648c22.1 0 40 17.9 40 40V788c0 22.1-17.9 40-40 40s-40-17.9-40-40v-100c0-22.1 17.9-40 40-40zM633 648c22.1 0 40 17.9 40 40V788c0 22.1-17.9 40-40 40s-40-17.9-40-40v-100c0-22.1 17.9-40 40-40zM813.9 729H693v-41c0-33.1-26.9-60-60-60s-60 26.9-60 60v41H432v-41c0-33.1-26.9-60-60-60s-60 26.9-60 60v41H189.7c-27.6 0-50-22.4-50-50v-690c0-27.6 22.4-50 50-50h624.1c27.6 0 50 22.4 50 50V679c0.1 27.6-22.3 50-49.9 50zM794 79.8c0-20.7-16.8-37.4-37.4-37.4H267.4c-20.7 0-37.4 16.8-37.4 37.4v5.1c0 20.7 16.8 37.4 37.4 37.4h489.1c20.7 0 37.4-16.8 37.4-37.4v-5.1z m0 225.2c0-21.7-17.6-39.3-39.3-39.3H269.3c-21.7 0-39.3 17.6-39.3 39.3v1.4c0 21.7 17.6 39.3 39.3 39.3h485.4c21.7 0 39.3-17.6 39.3-39.3v-1.4z m0 224c0-22.1-17.9-40-40-40H270c-22.1 0-40 17.9-40 40s17.9 40 40 40h484c22.1 0 40-17.9 40-40z"  horiz-adv-x="1024" />

    
    <glyph glyph-name="tingyong" unicode="&#59165;" d="M511.8 833.9c-248.5 0-450-201.5-450-450s201.5-450 450-450 450 201.5 450 450-201.5 450-450 450z m200-650h-400v400h400v-400z"  horiz-adv-x="1024" />

    
    <glyph glyph-name="shanchu" unicode="&#59166;" d="M288.7 741h440c27.6 0 50 22.4 50 50s-22.4 50-50 50h-440c-27.6 0-50-22.4-50-50 0.1-27.6 22.4-50 50-50zM833.4 640.2H184c-30.8 0-54.3-27.6-49.4-58l103.7-600c3.9-24.2 24.8-42 49.4-42h441.9c24.5 0 45.4 17.8 49.4 42l103.7 600c5 30.4-18.4 58-49.3 58zM444 100c0-27.6-22.4-50-50-50s-50 22.4-50 50V480c0 27.6 22.4 50 50 50s50-22.4 50-50v-380z m229.5 0c0-27.6-22.4-50-50-50s-50 22.4-50 50V480c0 27.6 22.4 50 50 50s50-22.4 50-50v-380z"  horiz-adv-x="1024" />

    
    <glyph glyph-name="wenjianjia" unicode="&#59167;" d="M951.3 440.8H293.2c-11.5 0-21.9-6.5-27-16.9L73.1 27.5c-6.6-13.6 3.3-29.5 18.5-29.5h657.2c11.5 0 21.9 6.5 27 16.9L969.2 412c6.5 13.3-3.2 28.8-17.9 28.8zM89.2 248.9c5.8-1.1 11.4 2.1 13.6 7.4l106.9 259.2c1.9 4.6 6.4 7.6 11.3 7.6h619.3c16.6 0 30 13.4 30 30v89c0 16.6-13.4 30-30 30H523V720c0 16.6-13.4 30-30 30H221.2c-16.6 0-30-13.4-30-30v-48.1h-82c-16.6 0-30-13.4-30-30v-380.7c0-5.9 4.1-11.2 10-12.3z"  horiz-adv-x="1024" />

    
    <glyph glyph-name="xinzeng" unicode="&#59168;" d="M734 13v75h-75c-44.2 0-80 35.8-80 80s35.8 80 80 80h75v75c0 44.2 35.8 80 80 80h1.5V781.5c0 29-23.5 52.5-52.5 52.5H118c-29 0-52.5-23.5-52.5-52.5v-795c0-29 23.5-52.5 52.5-52.5h645c7.7 0 15 1.7 21.5 4.6-29.6 11.8-50.5 40.6-50.5 74.4zM145 714c0 22.1 17.9 40 40 40h350c22.1 0 40-17.9 40-40s-17.9-40-40-40H185c-22.1 0-40 17.9-40 40z m0-160c0 22.1 17.9 40 40 40h440c22.1 0 40-17.9 40-40s-17.9-40-40-40H185c-22.1 0-40 17.9-40 40z m430-160c0-22.1-17.9-40-40-40H185c-22.1 0-40 17.9-40 40s17.9 40 40 40h350c22.1 0 40-17.9 40-40zM971 208H856V323c0 22.1-17.9 40-40 40s-40-17.9-40-40v-115H661c-22.1 0-40-17.9-40-40s17.9-40 40-40h115v-115c0-22.1 17.9-40 40-40s40 17.9 40 40V128h115c22.1 0 40 17.9 40 40s-17.9 40-40 40z"  horiz-adv-x="1024" />

    
    <glyph glyph-name="xiugai1" unicode="&#59169;" d="M793.5 834h-563c-50.2 0-91-40.7-91-91v-718c0-50.2 40.7-91 91-91h563c50.2 0 91 40.7 91 91V743c0 50.3-40.7 91-91 91zM472.9 595.6l69.3-40-140-242.5-69.3 40 140 242.5z m49.7-434C486.7 99.4 407.2 78.1 345 114c-62.2 35.9-83.5 115.4-47.6 177.6l10 17.3 225.2-130-10-17.3z m35.5 61.5l-69.3 40 140 242.5 69.3-40-140-242.5z m165.5 286.6l-225.2 130 40 69.3 225.2-130-40-69.3z"  horiz-adv-x="1024" />

    
    <glyph glyph-name="yonghuguanli" unicode="&#59170;" d="M512 618m-215 0a215 215 0 1 1 430 0 215 215 0 1 1-430 0ZM512 618m-215 0a215 215 0 1 1 430 0 215 215 0 1 1-430 0ZM663.2 408.9c-42-32-94.4-50.9-151.2-50.9s-109.2 19-151.2 50.9C191.1 348.4 68.5 188.9 62.3 0h899.5c-6.3 188.9-128.9 348.4-298.6 408.9z"  horiz-adv-x="1024" />

    
    <glyph glyph-name="yunyingshangguanli" unicode="&#59171;" d="M694.3 650c0 99.4-80.6 180-180 180s-180-80.6-180-180c0-93 70.5-169.5 161-179h38c90.5 9.5 161 86 161 179zM584.3 471h-140c-209 0-380-171-380-380v-96.4h900V91c0 209-171 380-380 380zM514 36l-74.7 71.7 50.8 263.7-37.4 45.2 0.6 0.5H576l-37.6-45.2L589.3 108 514 36z"  horiz-adv-x="1024" />

    
    <glyph glyph-name="zhuye" unicode="&#59172;" d="M952 494.2L545.3 822.4c-18.5 16.7-48.7 16.7-67.1 0L71.6 494.2C50.7 475.3 65.5 443 95 443h116.8v-394.1c0-23.9 19.3-43.2 43.2-43.2h144.3V257.5c0 62.1 50.4 112.5 112.5 112.5s112.5-50.4 112.5-112.5v-251.8h144.3c23.9 0 43.2 19.3 43.2 43.2V443h116.8c29.5 0 44.3 32.3 23.4 51.2z"  horiz-adv-x="1024" />

    


  </font>
</defs>
</svg>
